<svg width="567" height="566" viewBox="0 0 567 566" fill="none" xmlns="http://www.w3.org/2000/svg">
<path fill-rule="evenodd" clip-rule="evenodd" d="M259.757 0.751953C205.199 5.43395 155.153 24.576 112.007 57.2655C92.1864 72.2825 72.3184 92.1455 57.3274 111.932C27.5819 151.192 8.58138 197.353 2.25187 245.737C-0.750625 268.687 -0.750625 297.286 2.25187 320.237C9.37787 374.708 32.4254 425.984 68.6864 468.042C76.2099 476.767 90.5054 491.018 99.0069 498.265C140.836 533.927 191.855 556.69 245.757 563.742C268.707 566.744 297.306 566.744 320.257 563.742C374.158 556.69 425.178 533.927 467.007 498.265C475.508 491.018 489.804 476.767 497.327 468.042C533.588 425.984 556.636 374.708 563.762 320.237C566.764 297.286 566.764 268.687 563.762 245.737C556.71 191.835 533.947 140.816 498.285 98.987C491.038 90.4855 476.787 76.19 468.062 68.6665C426.004 32.4054 374.728 9.35795 320.257 2.23195C303.063 -0.0175471 276.34 -0.671047 259.757 0.751953ZM271.007 30.498C207.771 33.5735 149.05 59.5655 104.304 104.287C86.6079 121.973 71.6519 142.148 59.4919 164.737C56.3429 170.586 50.4909 183.137 50.7784 183.425C50.8874 183.534 53.2899 182.66 56.1169 181.483C62.8389 178.684 65.5154 178 69.7669 177.993C73.5349 177.986 79.3069 179.354 82.5989 181.034C83.6929 181.592 85.6389 183.139 86.9229 184.471C88.3964 186.001 91.7454 188.322 96.0069 190.769C115.533 201.981 141.846 218.842 157.507 230.177C165.694 236.103 172.022 242.455 175.251 247.987C176.615 250.324 180.581 258.336 184.065 265.792C191.063 280.768 194.53 287.151 196.292 288.306C197.288 288.958 197.88 288.98 200.357 288.454C203.1 287.872 203.541 287.553 208.529 282.538C211.428 279.622 217.379 273.074 221.751 267.987C234.431 253.234 238.745 248.734 242.822 246.007C251.38 240.283 261.063 239.575 270.257 244.001C274.676 246.128 278.515 249.248 281.164 252.866C282.118 254.17 286.496 261.715 290.892 269.632L298.885 284.028L299.692 280.882C300.136 279.152 301.057 275.4 301.738 272.543C304.512 260.911 309.144 255.339 318.218 252.72C326.446 250.345 340.612 253.767 350.582 260.538C355.06 263.579 357.622 266.05 361.934 271.487C372.351 284.621 411.225 329.87 437.967 359.987C455.14 379.327 465.036 390.052 475.428 400.588C483.905 409.181 484.919 410.045 487.949 411.259C491.81 412.804 498.927 413.74 499.839 412.822C500.159 412.5 502.055 409.312 504.051 405.737C533.936 352.233 543.159 288.221 529.698 227.737C515.972 166.064 479.59 112.037 427.029 75.276C381.944 43.744 326.402 27.8035 271.007 30.498ZM62.2569 211.752C59.2319 212.963 52.5944 215.342 47.5069 217.039C42.4194 218.735 38.1984 220.17 38.1274 220.226C37.7874 220.496 34.8404 234.293 33.7714 240.619C24.7859 293.785 33.1034 349.048 57.2839 396.84C93.0424 467.518 159.873 517.491 237.665 531.723C248.24 533.658 247.901 534.865 240.644 521.112C190.105 425.319 113.531 285.891 83.3674 234.737C78.6409 226.722 68.0034 209.45 67.8344 209.518C67.7919 209.535 65.2819 210.54 62.2569 211.752ZM125.08 246.041C157.936 304.339 183.115 349.962 215.79 410.398C224.198 425.95 224.259 426.045 224.637 424.148C224.847 423.097 227.487 394.899 230.504 361.487C233.522 328.074 236.083 300.062 236.197 299.237C236.379 297.918 235.517 298.621 229.08 305.039C222.553 311.547 221.294 312.568 217.507 314.422C215.169 315.566 211.007 317.077 208.257 317.78C203.877 318.9 202.481 319.034 197.007 318.86C190.022 318.637 185.826 317.493 180.642 314.397C172.203 309.357 168.117 303.401 157.451 280.587C149.917 264.472 148.572 262.071 145.63 259.474C143.134 257.269 134.485 250.974 127.799 246.496L123.842 243.845L125.08 246.041ZM328.884 289.33C326.945 296.899 323.791 303.135 319.885 307.118C318.164 308.873 316.208 310.648 315.537 311.063L314.317 311.819L365.725 404.278C394 455.13 417.22 496.833 417.325 496.95C417.601 497.257 428.29 489.987 435.007 484.924C446.535 476.233 457.008 466.835 467.129 456.098C472.876 450.001 480.011 441.684 480 441.095C479.996 440.898 477.837 439.859 475.201 438.786C472.566 437.712 469.025 435.825 467.333 434.592C461.341 430.224 445.292 413.699 423.771 389.737C397.48 360.463 350.612 306.08 338.3 290.562C335.895 287.53 331.708 283.987 330.532 283.987C330.378 283.987 329.637 286.391 328.884 289.33ZM267.511 290.737C267.497 291.012 263.691 332.612 259.054 383.183L250.621 475.129L260.631 493.933C266.137 504.275 273.33 517.968 276.616 524.362L282.591 535.986L289.174 535.714C311.054 534.809 325.636 532.827 344.427 528.202C362.213 523.825 391.048 513.117 390.299 511.167C390.114 510.684 270.663 295.689 267.967 290.987C267.731 290.574 267.526 290.462 267.511 290.737Z" fill="white"/>
</svg>
